<svg width="752" height="106" viewBox="0 0 752 106" fill="none" xmlns="http://www.w3.org/2000/svg">
    <g fill="#E8CDA6">
        <path fill-rule="evenodd" clip-rule="evenodd" d="M642.367 80.2153V2.00085H622.523V102.818H642.666L732.16 24.6035V102.818H752.004V2.00085H732L642.367 80.2153Z"></path>
        <path fill-rule="evenodd" clip-rule="evenodd" d="M496.867 53.2775L565.517 2.00085H593.786L529.312 50.0394L599.687 102.818H571.396L515.326 60.6271L496.867 74.2824V102.829H477.023V2.00085H496.867V53.2668V53.2775Z"></path>
        <path fill-rule="evenodd" clip-rule="evenodd" d="M366.012 55.4312C356.053 53.5991 348.171 50.9682 342.206 46.1004C337.54 42.2552 334.494 37.4088 333.557 32.3812C332.63 27.3856 333.77 22.1025 337.679 17.2453C343.569 9.94902 353.124 5.10255 364.372 2.52487C375.598 -0.0421546 388.37 -0.297792 400.502 1.45972C412.645 3.21723 424.052 6.98788 432.595 12.3989C440.605 17.469 445.92 23.8706 447.198 31.2948H427.216C425.693 26.7891 421.006 23.1889 415.201 20.5047C408.821 17.5649 400.651 15.5304 392.375 14.6038C384.098 13.6771 375.62 13.8475 368.611 15.4026C361.688 16.9364 355.819 19.9082 353.379 24.9145C352.57 26.6081 352.272 28.2378 352.538 29.7929C352.815 31.348 353.624 32.6582 354.764 33.7659C356.99 35.9175 360.612 37.4088 364.723 38.5378C372.105 40.551 381.819 41.5522 390.095 42.3937C391.107 42.5002 392.087 42.5961 393.046 42.7026C405.561 43.9914 417.512 45.9087 427.141 49.7433C436.749 53.5672 443.875 59.2125 447.049 67.8829C448.998 73.2087 448.86 77.9699 447.177 82.1666C445.483 86.3953 442.181 90.1766 437.601 93.404C428.42 99.8909 414.381 103.981 399.234 105.046C384.109 106.111 368.078 104.141 354.966 98.6659C342.483 93.4573 332.779 85.1384 328.859 73.3791H348.554C350.418 79.0457 355.946 83.1572 362.827 85.9373C370.198 88.9091 379.497 90.5175 388.711 90.8264C397.935 91.1353 407.191 90.1553 414.509 87.8652C418.162 86.7255 421.39 85.2343 423.893 83.3809C426.396 81.5169 428.228 79.2375 428.942 76.4894C429.836 73.0915 428.803 70.3008 426.715 68.1385C424.702 66.0508 421.72 64.5596 418.599 63.4518C412.751 61.3854 405.838 60.5227 402.249 60.0646C401.993 60.0327 401.759 60.0007 401.546 59.9794C397.008 59.4042 392.694 58.9249 388.583 58.4563C380.211 57.5083 372.701 56.6561 366.001 55.4206L366.012 55.4312Z"></path>
        <path fill-rule="evenodd" clip-rule="evenodd" d="M279.873 80.2153V2.00085H299.717V102.818H279.575L190.08 24.6035V102.818H170.236V2.00085H190.24L279.873 80.2153Z"></path>
        <path fill-rule="evenodd" clip-rule="evenodd" d="M72.8354 104.684C29.9096 104.684 0 80.8773 0 52.4909C0 24.1045 29.9096 0 72.8354 0C115.761 0 145.82 23.9554 145.82 52.4909C145.82 81.0265 115.91 104.694 72.8354 104.694V104.684ZM72.8354 89.7181C88.4719 89.7181 101.712 85.6066 111.075 78.9068C120.448 72.1963 125.976 62.8442 125.976 52.4909C125.976 42.1376 120.459 32.5086 111.075 25.7661C101.712 19.045 88.4719 14.9655 72.8354 14.9655C57.1989 14.9655 43.991 19.0343 34.6602 25.7661C25.3188 32.4979 19.8332 41.9246 19.8332 52.4803C19.8332 63.036 25.3188 72.1857 34.6602 78.8961C43.991 85.6066 57.1883 89.7075 72.8354 89.7075V89.7181Z"></path>
    </g>
</svg>